<?xml version="1.0" encoding="utf-8"?>
<!-- Generator: Adobe Illustrator 21.0.0, SVG Export Plug-In . SVG Version: 6.00 Build 0)  -->
<svg version="1.1" xmlns="http://www.w3.org/2000/svg" xmlns:xlink="http://www.w3.org/1999/xlink" x="0px" y="0px"
	 viewBox="0 0 230 171.7" style="enable-background:new 0 0 230 171.7;" xml:space="preserve">
<style type="text/css">
	.st0{fill:#00BDC8;}
	.st1{fill:#142743;}
	.st2{fill:#22344E;}
	.st3{fill:#FFFFFF;}
	.st4{fill:#F9D53D;}
	.st5{fill:#CF7718;}
	.st6{fill:#023859;}
	.st7{fill:#00A5AF;}
	.st8{fill:#B7BCBC;}
	.st9{fill:#DEDEDE;}
	.st10{fill:#051A37;}
	.st11{opacity:0.3;fill:#051A37;}
	.st12{fill:#EAEAEA;}
	.st13{fill:#898D8D;}
	.st14{fill:#A4D8E5;}
	.st15{fill:none;stroke:#FFFFFF;stroke-miterlimit:10;}
	.st16{opacity:0.2;fill:#22344E;}
	.st17{fill:#CCCCCC;}
	.st18{fill:#DBDBDB;}
	.st19{fill:#BCBCBC;}
	.st20{fill:#D1D1D1;}
	.st21{fill:#FFFFFF;stroke:#000000;stroke-width:0.25;stroke-miterlimit:10;}
	.st22{fill:#ED391B;}
	.st23{fill:#5ACE1D;}
	.st24{fill:none;stroke:#000000;stroke-width:0.25;stroke-miterlimit:10;}
	.st25{fill:#F1F1F1;}
</style>
<g id="BACKGROUND">
</g>
<g id="OBJECTS">
	<g id="Favoritos">
	</g>
	<g id="Favoritos_1_">
	</g>
	<g id="Favoritos_2_">
	</g>
	<g>
		<g>
			<ellipse class="st19" cx="117.1" cy="156.2" rx="89.4" ry="6.3"/>
			<g>
				<g>
					<g>
						<rect x="89.6" y="125.7" class="st8" width="55" height="23"/>
						<rect x="68.5" y="148.6" class="st9" width="96.8" height="6.5"/>
						<path class="st9" d="M205.7,116.5c0,9.5-7.7,17.2-17.2,17.2H45.9c-9.5,0-17.2-7.7-17.2-17.2V27c0-9.5,7.7-17.2,17.2-17.2
							h142.6c9.5,0,17.2,7.7,17.2,17.2V116.5z"/>
						<path class="st2" d="M188.4,9.7H45.9c-9.5,0-17.2,7.7-17.2,17.2v89.5h177V27C205.7,17.5,197.9,9.7,188.4,9.7z"/>
						<circle class="st10" cx="117" cy="122.6" r="3.2"/>
						<polygon class="st11" points="89.6,133.7 89.6,148.6 144.6,139.9 144.6,133.7 						"/>
					</g>
					<path class="st1" d="M188.4,9.7H45.9c-9.5,0-17.2,7.7-17.2,17.2v89.5h177V27C205.7,17.5,197.9,9.7,188.4,9.7z M200.5,111.3
						H33.8V27c0-6.7,5.4-12.1,12.1-12.1h142.6c6.7,0,12.1,5.4,12.1,12.1V111.3z"/>
				</g>
			</g>
		</g>
	</g>
	<rect x="44" y="41.2" class="st4" width="12.8" height="12.8"/>
	<rect x="65.1" y="41.2" class="st4" width="12.8" height="12.8"/>
	<rect x="65.1" y="69.1" class="st4" width="12.8" height="12.8"/>
	<rect x="44" y="69.1" class="st4" width="12.8" height="12.8"/>
	<g>
		<polygon class="st21" points="78.7,85.2 80.7,83.2 70.5,78.6 75.2,88.8 77.2,86.7 79.6,89.2 81.1,87.7 		"/>
	</g>
	<rect x="106.5" y="33.2" class="st3" width="84" height="57.9"/>
	<circle class="st22" cx="186.2" cy="37.6" r="2.6"/>
	<circle class="st23" cx="179.3" cy="37.6" r="2.6"/>
	<line class="st24" x1="106.5" y1="42.1" x2="190.5" y2="42.1"/>
</g>
<g id="DESIGNED_BY_FREEPIK">
	<g id="Favoritos_3_">
	</g>
	<g id="Favoritos_4_">
	</g>
	<g id="Favoritos_5_">
	</g>
</g>
</svg>
