<?xml version="1.0" encoding="utf-8"?>
<!-- Generator: Adobe Illustrator 21.0.0, SVG Export Plug-In . SVG Version: 6.00 Build 0)  -->
<svg version="1.1" xmlns="http://www.w3.org/2000/svg" xmlns:xlink="http://www.w3.org/1999/xlink" x="0px" y="0px"
	 viewBox="0 0 230 171.7" style="enable-background:new 0 0 230 171.7;" xml:space="preserve">
<style type="text/css">
	.st0{fill:#00BDC8;}
	.st1{fill:#142743;}
	.st2{fill:#22344E;}
	.st3{fill:#FFFFFF;}
	.st4{fill:#F9D53D;}
	.st5{fill:#CF7718;}
	.st6{fill:#023859;}
	.st7{fill:#00A5AF;}
	.st8{fill:#B7BCBC;}
	.st9{fill:#DEDEDE;}
	.st10{fill:#051A37;}
	.st11{opacity:0.3;fill:#051A37;}
	.st12{fill:#EAEAEA;}
	.st13{fill:#898D8D;}
	.st14{fill:#A4D8E5;}
	.st15{fill:none;stroke:#FFFFFF;stroke-miterlimit:10;}
	.st16{opacity:0.2;fill:#22344E;}
	.st17{fill:#CCCCCC;}
	.st18{fill:#DBDBDB;}
	.st19{fill:#BCBCBC;}
	.st20{fill:#D1D1D1;}
	.st21{fill:#FFFFFF;stroke:#000000;stroke-width:0.25;stroke-miterlimit:10;}
	.st22{fill:#ED391B;}
	.st23{fill:#5ACE1D;}
	.st24{fill:none;stroke:#000000;stroke-width:0.25;stroke-miterlimit:10;}
	.st25{fill:#F2D055;}
	.st26{fill:#EBBD52;}
	.st27{fill:#EBB151;}
	.st28{fill:none;stroke:#272425;stroke-width:4.9324;stroke-linejoin:round;stroke-miterlimit:10;}
	.st29{fill:none;stroke:#272425;stroke-width:5;stroke-linejoin:round;stroke-miterlimit:10;}
	.st30{fill:#F0F1F1;}
	.st31{fill:#DBDCDD;}
	.st32{fill:#CFD1D2;}
	.st33{fill:#73BED5;}
	.st34{opacity:0.6;}
	.st35{fill:#D66629;}
	.st36{fill:#F1F1F1;}
</style>
<g id="BACKGROUND">
</g>
<g id="OBJECTS">
	<g id="Favoritos">
	</g>
	<g id="Favoritos_1_">
	</g>
	<g id="Favoritos_2_">
	</g>
	<g>
		<g>
			<g>
				<polygon class="st25" points="138.2,45.5 138.2,127.9 61.8,127.9 61.8,27.1 119.7,27.1 				"/>
			</g>
			<g>
				<rect x="81.7" y="34" class="st26" width="10" height="2"/>
				<rect x="81.7" y="37.2" class="st26" width="20" height="2"/>
			</g>
			<polygon class="st27" points="119.4,46 138.2,46 119.4,27.1 			"/>
			<g>
				<polygon class="st28" points="119.7,27.1 61.8,27.1 61.8,127.9 138.2,127.9 138.2,45.5 				"/>
			</g>
			<g>
				<line class="st29" x1="84.5" y1="87.1" x2="96.9" y2="87.1"/>
				<line class="st29" x1="82.5" y1="93.5" x2="96.9" y2="93.5"/>
				<line class="st29" x1="69.3" y1="100.3" x2="96.9" y2="100.3"/>
				<line class="st29" x1="69.3" y1="106.7" x2="96.9" y2="106.7"/>
				<line class="st29" x1="104.1" y1="87.1" x2="131.8" y2="87.1"/>
				<line class="st29" x1="104.1" y1="93.5" x2="131.8" y2="93.5"/>
				<line class="st29" x1="104.1" y1="100.3" x2="131.8" y2="100.3"/>
				<line class="st29" x1="104.1" y1="106.7" x2="131.8" y2="106.7"/>
			</g>
			<line class="st29" x1="69.3" y1="113.5" x2="75.3" y2="113.5"/>
			<line class="st29" x1="78.5" y1="113.5" x2="84.5" y2="113.5"/>
		</g>
		<g>
			<g>
				<polygon class="st30" points="109.2,77.8 109.2,160.1 185.6,160.1 185.6,59.3 127.6,59.3 				"/>
			</g>
			<polygon class="st3" points="127.8,78.1 109.2,78.1 127.8,59.3 			"/>
			<g>
				<polygon class="st28" points="127.6,59.3 185.6,59.3 185.6,160.1 109.2,160.1 109.2,77.8 				"/>
			</g>
			<rect x="168.2" y="147.4" class="st31" width="9.6" height="2"/>
			<rect x="158.2" y="150.6" class="st31" width="19.6" height="2"/>
		</g>
		<g>
			<g>
				<polygon class="st30" points="54.9,123.8 54.9,117.5 41.4,126.8 54.9,136.1 54.9,131.4 118.6,131.4 118.6,123.8 				"/>
			</g>
		</g>
		<g>
			<g>
				<polygon class="st25" points="192.7,62.9 192.7,68.9 206.1,59.6 192.7,50.3 192.7,55.2 109.4,55.2 109.4,62.9 				"/>
			</g>
		</g>
		<g>
			<g id="XMLID_164_">
				<g>
					<path class="st32" d="M128.6,127.4v9.2h-4.2c0,0-1,1.7-1,1.8l3.6,3.1l-6.4,6.4l-3.8-3.7c-0.1,0.1-1.3,1-2.7,1v5.9h-9.2v-5.9
						c0,0-2-0.9-2.1-0.9l-3.4,3.8l-6.4-6.2l3.7-3.4c-0.1-0.1-1-1.8-1-1.8h-6v-9.2h6c0-1.3,0.9-2.8,1-3l-3.7-4.2l6.3-6.4l3.5,3.7
						c0.1-0.1,2.1-1,2.1-1v-4.3h9.2v4.3c1.3,0,2.5,1,2.7,1.1l3.9-3.6l6.4,6.5l-3.7,3.9c0.1,0.1,1,1.6,1,3H128.6z M114,131.4
						c0-2.7-2.2-4.9-4.9-4.9c-2.7,0-4.9,2.2-4.9,4.9c0,2.7,2.2,4.9,4.9,4.9C111.8,136.4,114,134.1,114,131.4z"/>
					<circle class="st30" cx="109.1" cy="131.4" r="4.9"/>
				</g>
				<g>
					<path class="st28" d="M124.4,136.6h4.2v-9.2h-4.2c0-1.3-0.9-2.8-1-3l3.7-3.9l-6.4-6.5l-3.9,3.6c-0.1-0.1-1.3-1-2.7-1.1v-4.3
						h-9.2v4.3c0,0-2,0.9-2.1,1l-3.5-3.7l-6.3,6.4l3.7,4.2c-0.1,0.1-0.9,1.6-1,3h-6v9.2h6c0,0,0.9,1.7,1,1.8l-3.7,3.4l6.4,6.2
						l3.4-3.8c0.1,0.1,2.1,0.9,2.1,0.9v5.9h9.2v-5.9c1.3,0,2.5-0.9,2.7-1l3.8,3.7l6.4-6.4l-3.6-3.1
						C123.4,138.3,124.4,136.6,124.4,136.6z"/>
				</g>
			</g>
		</g>
		<g>
			<g id="XMLID_165_">
				<g>
					<path class="st32" d="M81.1,76.8V86h-4.2c0,0-1,1.7-1,1.8l3.6,3.1L73,97.3l-3.8-3.7c-0.1,0.1-1.3,1-2.7,1v5.9h-9.2v-5.9
						c0,0-2-0.9-2.1-0.9l-3.4,3.8l-6.4-6.2l3.7-3.4c-0.1-0.1-1-1.8-1-1.8h-6v-9.2h6c0-1.3,0.9-2.8,1-3l-3.7-4.2l6.3-6.4l3.5,3.7
						c0.1-0.1,2.1-1,2.1-1v-4.3h9.2v4.3c1.3,0,2.5,1,2.7,1.1l3.9-3.6l6.4,6.5l-3.7,3.9c0.1,0.1,1,1.6,1,3H81.1z M66.5,80.8
						c0-2.7-2.2-4.9-4.9-4.9c-2.7,0-4.9,2.2-4.9,4.9c0,2.7,2.2,4.9,4.9,4.9C64.3,85.7,66.5,83.5,66.5,80.8z"/>
					<circle class="st30" cx="61.6" cy="80.8" r="4.9"/>
				</g>
				<g>
					<path class="st28" d="M76.9,86h4.2v-9.2h-4.2c0-1.3-0.9-2.8-1-3l3.7-3.9l-6.4-6.5L69.3,67c-0.1-0.1-1.3-1-2.7-1.1v-4.3h-9.2
						v4.3c0,0-2,0.9-2.1,1l-3.5-3.7l-6.3,6.4l3.7,4.2c-0.1,0.1-0.9,1.6-1,3h-6V86h6c0,0,0.9,1.7,1,1.8l-3.7,3.4l6.4,6.2l3.4-3.8
						c0.1,0.1,2.1,0.9,2.1,0.9v5.9h9.2v-5.9c1.3,0,2.5-0.9,2.7-1l3.8,3.7l6.4-6.4l-3.6-3.1C75.9,87.7,76.8,86,76.9,86z"/>
				</g>
			</g>
		</g>
		<g>
			<g>
				<polyline class="st28" points="169.8,32.9 172.8,35.6 169.8,38.4 				"/>
				<line class="st29" x1="172.7" y1="35.8" x2="158.2" y2="35.8"/>
			</g>
			<g>
				<polyline class="st28" points="162,48.3 158.9,45.7 162,42.8 				"/>
				<line class="st29" x1="159" y1="45.4" x2="174.3" y2="45.4"/>
			</g>
		</g>
		<g>
			<g>
				<polyline class="st28" points="79.6,139.6 82.6,142.3 79.6,145.1 				"/>
				<line class="st29" x1="82.5" y1="142.4" x2="68.1" y2="142.4"/>
			</g>
			<g>
				<polyline class="st28" points="71.7,155 68.7,152.4 71.7,149.5 				"/>
				<line class="st29" x1="68.9" y1="152.4" x2="83.7" y2="152.4"/>
			</g>
		</g>
		<g>
			<line class="st29" x1="141" y1="38.2" x2="143.8" y2="38.2"/>
			<line class="st29" x1="146.6" y1="38.2" x2="149" y2="38.2"/>
			<line class="st29" x1="151.8" y1="38.2" x2="154.2" y2="38.2"/>
		</g>
		<g>
			<line class="st29" x1="177.5" y1="42.2" x2="179.9" y2="42.2"/>
			<line class="st29" x1="182.7" y1="42.2" x2="185.5" y2="42.2"/>
			<line class="st29" x1="187.9" y1="42.2" x2="190.7" y2="42.2"/>
		</g>
		<g>
			<line class="st29" x1="84.5" y1="157.6" x2="87.3" y2="157.6"/>
			<line class="st29" x1="89.7" y1="157.6" x2="92.5" y2="157.6"/>
			<line class="st29" x1="94.9" y1="157.6" x2="97.7" y2="157.6"/>
		</g>
		<g>
			<line class="st29" x1="50.9" y1="146.8" x2="53.7" y2="146.8"/>
			<line class="st29" x1="56.1" y1="146.8" x2="58.9" y2="146.8"/>
			<line class="st29" x1="61.3" y1="146.8" x2="64.1" y2="146.8"/>
		</g>
		<line class="st29" x1="116.2" y1="86.3" x2="143.8" y2="86.3"/>
		<line class="st29" x1="116.2" y1="93.1" x2="143.8" y2="93.1"/>
		<line class="st29" x1="116.2" y1="99.5" x2="143.8" y2="99.5"/>
		<line class="st29" x1="116.2" y1="105.9" x2="143.8" y2="105.9"/>
		<line class="st29" x1="151" y1="86.3" x2="178.7" y2="86.3"/>
		<line class="st29" x1="151" y1="93.1" x2="178.7" y2="93.1"/>
		<line class="st29" x1="151" y1="99.5" x2="178.7" y2="99.5"/>
		<line class="st29" x1="151" y1="105.9" x2="178.7" y2="105.9"/>
		<g>
			<g id="XMLID_166_">
				<g>
					<circle class="st33" cx="185.6" cy="132" r="11.9"/>
				</g>
				<g class="st34">
					<circle class="st3" cx="185.6" cy="132" r="8.2"/>
				</g>
				<g>
					<circle class="st28" cx="185.6" cy="132" r="11.9"/>
				</g>
			</g>
			<polyline class="st28" points="180.3,133.1 183.1,135.8 191.9,127 			"/>
		</g>
		<g>
			<g id="XMLID_167_">
				<g>
					<circle class="st35" cx="66.4" cy="31.8" r="11.9"/>
				</g>
				<g class="st34">
					<circle class="st3" cx="66.4" cy="31.8" r="8.2"/>
				</g>
				<g>
					<circle class="st28" cx="66.4" cy="31.8" r="11.9"/>
				</g>
			</g>
			<polyline class="st28" points="61.1,33 63.8,35.7 72.6,26.9 			"/>
		</g>
		<line class="st29" x1="178.7" y1="113.5" x2="173.5" y2="113.5"/>
		<line class="st29" x1="170.6" y1="113.5" x2="165.4" y2="113.5"/>
		<line class="st29" x1="143.8" y1="113.5" x2="138.6" y2="113.5"/>
		<line class="st29" x1="135.8" y1="113.5" x2="130.6" y2="113.5"/>
		<circle class="st33" cx="196.7" cy="82.7" r="2.6"/>
		<circle class="st25" cx="41.3" cy="109.7" r="2.6"/>
		<circle class="st35" cx="154.6" cy="23.4" r="2.6"/>
		<circle class="st33" cx="103.8" cy="18.1" r="2.6"/>
		<circle class="st35" cx="35.3" cy="64.2" r="2.6"/>
		<g>
			<line class="st29" x1="132.4" y1="17.6" x2="132.4" y2="20"/>
			<line class="st29" x1="132.4" y1="22.8" x2="132.4" y2="25.6"/>
			<line class="st29" x1="127.8" y1="21.8" x2="130.6" y2="21.8"/>
			<line class="st29" x1="133.8" y1="21.8" x2="136.6" y2="21.8"/>
		</g>
		<g>
			<line class="st29" x1="175.7" y1="15.6" x2="175.7" y2="18"/>
			<line class="st29" x1="175.7" y1="20.8" x2="175.7" y2="23.6"/>
			<line class="st29" x1="171.5" y1="19.8" x2="174.3" y2="19.8"/>
			<line class="st29" x1="177.5" y1="19.8" x2="179.9" y2="19.8"/>
		</g>
		<g>
			<line class="st29" x1="205.3" y1="95.3" x2="205.3" y2="97.7"/>
			<line class="st29" x1="205.3" y1="100.5" x2="205.3" y2="103.3"/>
			<line class="st29" x1="201.1" y1="99.5" x2="203.9" y2="99.5"/>
			<line class="st29" x1="207.1" y1="99.5" x2="209.5" y2="99.5"/>
		</g>
		<g>
			<line class="st29" x1="29.4" y1="86.1" x2="29.4" y2="88.5"/>
			<line class="st29" x1="29.4" y1="91.3" x2="29.4" y2="94.1"/>
			<line class="st29" x1="25.2" y1="90.3" x2="28" y2="90.3"/>
			<line class="st29" x1="31.2" y1="90.3" x2="33.6" y2="90.3"/>
		</g>
		<g>
			<line class="st29" x1="45.8" y1="38.4" x2="45.8" y2="41.2"/>
			<line class="st29" x1="45.8" y1="44" x2="45.8" y2="46.4"/>
			<line class="st29" x1="41.6" y1="43" x2="44.4" y2="43"/>
			<line class="st29" x1="47.7" y1="43" x2="50.1" y2="43"/>
		</g>
		<g>
			<line class="st29" x1="85.5" y1="6.4" x2="85.5" y2="8.8"/>
			<line class="st29" x1="85.5" y1="11.6" x2="85.5" y2="14.4"/>
			<line class="st29" x1="81.3" y1="10.6" x2="83.7" y2="10.6"/>
			<line class="st29" x1="87.3" y1="10.6" x2="89.7" y2="10.6"/>
		</g>
		<g>
			<g>
				<polyline class="st28" points="99.3,49.4 102.4,52 99.3,54.9 				"/>
				<polyline class="st29" points="102.1,52.2 87.5,52.2 87.5,56.4 				"/>
			</g>
			<g>
				<polyline class="st28" points="91.5,65.4 88.5,62.8 91.5,59.9 				"/>
				<polyline class="st29" points="88.5,62.7 103.1,62.7 103.1,58.4 				"/>
			</g>
		</g>
		<g>
			<g>
				<polyline class="st28" points="154,125.1 157,127.8 154,130.7 				"/>
				<polyline class="st29" points="157,128 142,128 142,132.2 				"/>
			</g>
			<g>
				<polyline class="st28" points="146.2,141.2 143.1,138.6 146.2,135.7 				"/>
				<polyline class="st29" points="143,138.4 158,138.4 158,134.2 				"/>
			</g>
		</g>
	</g>
</g>
<g id="DESIGNED_BY_FREEPIK">
	<g id="Favoritos_3_">
	</g>
	<g id="Favoritos_4_">
	</g>
	<g id="Favoritos_5_">
	</g>
</g>
</svg>
