<?xml version="1.0" encoding="utf-8"?>
<!-- Generator: Adobe Illustrator 21.0.0, SVG Export Plug-In . SVG Version: 6.00 Build 0)  -->
<svg version="1.1" id="Layer_1" xmlns="http://www.w3.org/2000/svg" xmlns:xlink="http://www.w3.org/1999/xlink" x="0px" y="0px"
	 viewBox="0 0 114 114" style="enable-background:new 0 0 114 114;" xml:space="preserve">
<style type="text/css">
	.st0{fill:#9CCC65;}
	.st1{fill:#E91E63;}
</style>
<g id="Check">
	<path class="st0" d="M245.6,15.4C234,3.8,218.7-2,203.5-2S173,3.8,161.4,15.4c-23.2,23.2-23.2,60.9,0,84.1
		c11.6,11.6,26.8,17.4,42.1,17.4s30.5-5.8,42.1-17.4C268.8,76.3,268.8,38.7,245.6,15.4z M239,93c-9.5,9.5-22.1,14.7-35.5,14.7
		s-26-5.2-35.5-14.7c-19.6-19.6-19.6-51.4,0-71c9.5-9.5,22.1-14.7,35.5-14.7s26,5.2,35.5,14.7C258.6,41.6,258.6,73.4,239,93z"/>
	<polygon class="st0" points="195.4,57.4 183.1,44 169.5,57.6 169.5,57.6 195.1,83.2 238.3,40 228.4,29.9 	"/>
</g>
<g id="Delete">
	<polygon class="st1" points="71.5,30 57,44.5 42.5,30 30,42.5 44.5,57 30,71.5 42.5,84 57,69.5 71.5,84 84,71.5 69.5,57 84,42.5 	
		"/>
	<path class="st1" d="M95.9,18.1C85.2,7.4,71.1,2,57,2S28.8,7.4,18.1,18.1c-21.5,21.5-21.5,56.3,0,77.8C28.8,106.6,42.9,112,57,112
		s28.2-5.4,38.9-16.1C117.4,74.4,117.4,39.6,95.9,18.1z M89.8,89.8C81,98.6,69.4,103.4,57,103.4s-24.1-4.8-32.8-13.6
		C15.4,81,10.6,69.4,10.6,57c0-12.4,4.8-24,13.6-32.8c8.8-8.8,20.4-13.6,32.8-13.6s24,4.8,32.8,13.6h0c8.8,8.8,13.6,20.4,13.6,32.8
		C103.4,69.4,98.6,81,89.8,89.8z"/>
</g>
</svg>
