<?xml version="1.0" encoding="utf-8"?>
<!-- Generator: Adobe Illustrator 21.0.0, SVG Export Plug-In . SVG Version: 6.00 Build 0)  -->
<svg version="1.1" xmlns="http://www.w3.org/2000/svg" xmlns:xlink="http://www.w3.org/1999/xlink" x="0px" y="0px"
	 viewBox="0 0 230 171.7" style="enable-background:new 0 0 230 171.7;" xml:space="preserve">
<style type="text/css">
	.st0{fill:#00BDC8;}
	.st1{fill:#142743;}
	.st2{fill:#22344E;}
	.st3{fill:#FFFFFF;}
	.st4{fill:#F9D53D;}
	.st5{fill:#CF7718;}
	.st6{fill:#023859;}
	.st7{fill:#00A5AF;}
	.st8{fill:#B7BCBC;}
	.st9{fill:#DEDEDE;}
	.st10{fill:#051A37;}
	.st11{opacity:0.3;fill:#051A37;}
	.st12{fill:#EAEAEA;}
	.st13{fill:#898D8D;}
	.st14{fill:#A4D8E5;}
	.st15{fill:none;stroke:#FFFFFF;stroke-miterlimit:10;}
	.st16{opacity:0.2;fill:#22344E;}
	.st17{fill:#CCCCCC;}
	.st18{fill:#DBDBDB;}
	.st19{fill:#BCBCBC;}
	.st20{fill:#D1D1D1;}
	.st21{fill:#F1F1F1;}
</style>
<g id="BACKGROUND">
</g>
<g id="OBJECTS">
	<g id="Favoritos">
	</g>
	<g id="Favoritos_1_">
	</g>
	<g id="Favoritos_2_">
	</g>
	<g>
		<g>
			<ellipse class="st19" cx="117.1" cy="156.2" rx="89.4" ry="6.3"/>
			<g>
				<g>
					<g>
						<rect x="89.6" y="125.7" class="st8" width="55" height="23"/>
						<rect x="68.5" y="148.6" class="st9" width="96.8" height="6.5"/>
						<path class="st9" d="M205.7,116.5c0,9.5-7.7,17.2-17.2,17.2H45.9c-9.5,0-17.2-7.7-17.2-17.2V27c0-9.5,7.7-17.2,17.2-17.2
							h142.6c9.5,0,17.2,7.7,17.2,17.2V116.5z"/>
						<path class="st2" d="M188.4,9.7H45.9c-9.5,0-17.2,7.7-17.2,17.2v89.5h177V27C205.7,17.5,197.9,9.7,188.4,9.7z"/>
						<circle class="st10" cx="117" cy="122.6" r="3.2"/>
						<polygon class="st11" points="89.6,133.7 89.6,148.6 144.6,139.9 144.6,133.7 						"/>
					</g>
					<path class="st1" d="M188.4,9.7H45.9c-9.5,0-17.2,7.7-17.2,17.2v89.5h177V27C205.7,17.5,197.9,9.7,188.4,9.7z M200.5,111.3
						H33.8V27c0-6.7,5.4-12.1,12.1-12.1h142.6c6.7,0,12.1,5.4,12.1,12.1V111.3z"/>
				</g>
			</g>
			<rect x="81" y="24.7" class="st3" width="72" height="82.5"/>
			<rect x="92" y="35.7" class="st20" width="50" height="3.5"/>
			<rect x="92" y="45.7" class="st20" width="50" height="3.5"/>
			<rect x="92" y="55.7" class="st20" width="50" height="3.5"/>
			<rect x="92" y="65.7" class="st20" width="50" height="3.5"/>
			<rect x="92" y="75.7" class="st20" width="50" height="3.5"/>
			<rect x="92" y="85.7" class="st20" width="50" height="3.5"/>
			<rect x="92" y="95.7" class="st20" width="50" height="3.5"/>
		</g>
		<g>
			<polygon class="st3" points="160.7,98.7 162.8,96.6 152.6,92 157.2,102.2 159.3,100.1 161.7,102.6 163.2,101.1 			"/>
		</g>
	</g>
</g>
<g id="DESIGNED_BY_FREEPIK">
	<g id="Favoritos_3_">
	</g>
	<g id="Favoritos_4_">
	</g>
	<g id="Favoritos_5_">
	</g>
</g>
</svg>
